HIERARCHY
ROOT Hips
{
  OFFSET 0 0.240689 0
  CHANNELS 6 Xposition Yposition Zposition Zrotation Xrotation Yrotation
  JOINT Bip01_Spine0
  {
    OFFSET 0 -24.7459 49.7988
    CHANNELS 6 Xposition Yposition Zposition Zrotation Xrotation Yrotation
    JOINT Bip01_Pelvis
    {
      OFFSET 0 0 0
      CHANNELS 6 Xposition Yposition Zposition Zrotation Xrotation Yrotation
      JOINT Bip01_Spine0_Tail
      {
        OFFSET -6.47486 -3.86022 0
        CHANNELS 6 Xposition Yposition Zposition Zrotation Xrotation Yrotation
        JOINT Bip01_Spine0_Tail1
        {
          OFFSET 10.3837 -0.00825882 0
          CHANNELS 6 Xposition Yposition Zposition Zrotation Xrotation Yrotation
          JOINT Bip01_Spine0_Tail2
          {
            OFFSET 10.3837 -0.00826263 0
            CHANNELS 6 Xposition Yposition Zposition Zrotation Xrotation Yrotation
            JOINT Bip01_Spine0_Tail3
            {
              OFFSET 10.3837 -0.00825882 0
              CHANNELS 6 Xposition Yposition Zposition Zrotation Xrotation Yrotation
              JOINT Bip01_Spine0_Tail4
              {
                OFFSET 10.3837 -0.00826263 0
                CHANNELS 6 Xposition Yposition Zposition Zrotation Xrotation Yrotation
                End Site
                {
                  OFFSET 0 0 0
                }
              }
            }
          }
        }
      }
      JOINT Bip01_R_Thigh
      {
        OFFSET 0 -1.52588e-005 -8.75617
        CHANNELS 6 Xposition Yposition Zposition Zrotation Xrotation Yrotation
        JOINT Bip01_R_Calf
        {
          OFFSET 19.7638 0 0
          CHANNELS 6 Xposition Yposition Zposition Zrotation Xrotation Yrotation
          JOINT Bip01_R_Foot
          {
            OFFSET 18.6534 0 0
            CHANNELS 6 Xposition Yposition Zposition Zrotation Xrotation Yrotation
            JOINT Bip01_R_Toe0
            {
              OFFSET 5.09145 13.9567 0
              CHANNELS 6 Xposition Yposition Zposition Zrotation Xrotation Yrotation
              JOINT Bip01_R_Toe01
              {
                OFFSET 4.28803 0 0
                CHANNELS 6 Xposition Yposition Zposition Zrotation Xrotation Yrotation
                JOINT Bip01_R_Toe02
                {
                  OFFSET 3.85801 0 0
                  CHANNELS 6 Xposition Yposition Zposition Zrotation Xrotation Yrotation
                  End Site
                  {
                    OFFSET 0 0 0
                  }
                }
              }
            }
          }
        }
      }
      JOINT Bip01_L_Thigh
      {
        OFFSET 0 1.52588e-005 8.75617
        CHANNELS 6 Xposition Yposition Zposition Zrotation Xrotation Yrotation
        JOINT Bip01_L_Calf
        {
          OFFSET 19.7638 0 0
          CHANNELS 6 Xposition Yposition Zposition Zrotation Xrotation Yrotation
          JOINT Bip01_L_Foot
          {
            OFFSET 18.6534 0 0
            CHANNELS 6 Xposition Yposition Zposition Zrotation Xrotation Yrotation
            JOINT Bip01_L_Toe0
            {
              OFFSET 5.09144 13.9567 0
              CHANNELS 6 Xposition Yposition Zposition Zrotation Xrotation Yrotation
              JOINT Bip01_L_Toe01
              {
                OFFSET 4.28802 0 0
                CHANNELS 6 Xposition Yposition Zposition Zrotation Xrotation Yrotation
                JOINT Bip01_L_Toe02
                {
                  OFFSET 3.85801 0 0
                  CHANNELS 6 Xposition Yposition Zposition Zrotation Xrotation Yrotation
                  End Site
                  {
                    OFFSET 0 0 0
                  }
                }
              }
            }
          }
        }
      }
      JOINT Bip01_Spine
      {
        OFFSET 9.14835 -0.00640869 -1.1e-005
        CHANNELS 6 Xposition Yposition Zposition Zrotation Xrotation Yrotation
        JOINT Bip01_Spine1
        {
          OFFSET 8.04366 -0.00638199 0
          CHANNELS 6 Xposition Yposition Zposition Zrotation Xrotation Yrotation
          JOINT Bip01_Spine2
          {
            OFFSET 8.04367 -0.00639343 0
            CHANNELS 6 Xposition Yposition Zposition Zrotation Xrotation Yrotation
            JOINT Bip01_Spine3
            {
              OFFSET 8.04304 -0.00831222 0
              CHANNELS 6 Xposition Yposition Zposition Zrotation Xrotation Yrotation
              JOINT Bip01_Neck
              {
                OFFSET 10.6685 1.06813 0
                CHANNELS 6 Xposition Yposition Zposition Zrotation Xrotation Yrotation
                JOINT Bip01_R_Clavicle
                {
                  OFFSET -3.21661 -4.89635 -9.04802
                  CHANNELS 6 Xposition Yposition Zposition Zrotation Xrotation Yrotation
                  JOINT Bip01_R_UpperArm
                  {
                    OFFSET 19.0492 0 0
                    CHANNELS 6 Xposition Yposition Zposition Zrotation Xrotation Yrotation
                    JOINT Bip01_R_Forearm
                    {
                      OFFSET 10.3706 0 0
                      CHANNELS 6 Xposition Yposition Zposition Zrotation Xrotation Yrotation
                      JOINT Bip01_R_Hand
                      {
                        OFFSET 22.8632 0 0
                        CHANNELS 6 Xposition Yposition Zposition Zrotation Xrotation Yrotation
                        JOINT Bip01_R_Finger0
                        {
                          OFFSET 6.48259 0.103651 0.504496
                          CHANNELS 6 Xposition Yposition Zposition Zrotation Xrotation Yrotation
                          JOINT Bip01_R_Finger01
                          {
                            OFFSET 3.66847 0 0
                            CHANNELS 6 Xposition Yposition Zposition Zrotation Xrotation Yrotation
                            End Site
                            {
                              OFFSET 0 0 0
                            }
                          }
                        }
                      }
                    }
                  }
                }
                JOINT Bip01_L_Clavicle
                {
                  OFFSET -3.21661 -4.89641 9.04797
                  CHANNELS 6 Xposition Yposition Zposition Zrotation Xrotation Yrotation
                  JOINT Bip01_L_UpperArm
                  {
                    OFFSET 19.0492 0 0
                    CHANNELS 6 Xposition Yposition Zposition Zrotation Xrotation Yrotation
                    JOINT Bip01_L_Forearm
                    {
                      OFFSET 10.3706 0 0
                      CHANNELS 6 Xposition Yposition Zposition Zrotation Xrotation Yrotation
                      JOINT Bip01_L_Hand
                      {
                        OFFSET 22.8631 0 0
                        CHANNELS 6 Xposition Yposition Zposition Zrotation Xrotation Yrotation
                        JOINT Bip01_L_Finger0
                        {
                          OFFSET 6.48257 0.103655 -0.504492
                          CHANNELS 6 Xposition Yposition Zposition Zrotation Xrotation Yrotation
                          JOINT Bip01_L_Finger01
                          {
                            OFFSET 3.66844 0 0
                            CHANNELS 6 Xposition Yposition Zposition Zrotation Xrotation Yrotation
                            End Site
                            {
                              OFFSET 0 0 0
                            }
                          }
                        }
                      }
                    }
                  }
                }
                JOINT Bip01_Neck1
                {
                  OFFSET 7.52459 -0.00656509 0
                  CHANNELS 6 Xposition Yposition Zposition Zrotation Xrotation Yrotation
                  JOINT Bip01_Neck2
                  {
                    OFFSET 8.4783 -0.00588226 0
                    CHANNELS 6 Xposition Yposition Zposition Zrotation Xrotation Yrotation
                    JOINT Bip01_Head
                    {
                      OFFSET 8.41606 0 0
                      CHANNELS 6 Xposition Yposition Zposition Zrotation Xrotation Yrotation
                      JOINT EyesBlue
                      {
                        OFFSET 0 0 0
                        CHANNELS 6 Xposition Yposition Zposition Zrotation Xrotation Yrotation
                        JOINT EyesBlue_2
                        {
                          OFFSET 0 -0.500007 0
                          CHANNELS 6 Xposition Yposition Zposition Zrotation Xrotation Yrotation
                          End Site
                          {
                            OFFSET 0 0 0
                          }
                        }
                      }
                      JOINT Bip01_Head2_Eyeleds
                      {
                        OFFSET 6.52751 7.61746 2.2e-005
                        CHANNELS 6 Xposition Yposition Zposition Zrotation Xrotation Yrotation
                        End Site
                        {
                          OFFSET 0 0 0
                        }
                      }
                      JOINT Bip01_Head_Muzzle
                      {
                        OFFSET 2.88628 13.9448 3.88994
                        CHANNELS 6 Xposition Yposition Zposition Zrotation Xrotation Yrotation
                        End Site
                        {
                          OFFSET 0 0 0
                        }
                      }
                      JOINT Bip01_Head1_Jaw
                      {
                        OFFSET 0.271065 1.32405 0
                        CHANNELS 6 Xposition Yposition Zposition Zrotation Xrotation Yrotation
                        JOINT _Bip01_Head11_TungeControler
                        {
                          OFFSET 4.61616 5.82872 0
                          CHANNELS 6 Xposition Yposition Zposition Zrotation Xrotation Yrotation
                          JOINT _Bip01_Ponytail3_tunge
                          {
                            OFFSET 5.17785 2.98805 0
                            CHANNELS 6 Xposition Yposition Zposition Zrotation Xrotation Yrotation
                            JOINT Bip01_Ponytail31
                            {
                              OFFSET 5.57569 0 0
                              CHANNELS 6 Xposition Yposition Zposition Zrotation Xrotation Yrotation
                              JOINT Bip01_Ponytail32
                              {
                                OFFSET 2.93165 0 0
                                CHANNELS 6 Xposition Yposition Zposition Zrotation Xrotation Yrotation
                                JOINT Bip01_Ponytail3Nub
                                {
                                  OFFSET 3.30155 0 0
                                  CHANNELS 6 Xposition Yposition Zposition Zrotation Xrotation Yrotation
                                  End Site
                                  {
                                    OFFSET 0 0 0
                                  }
                                }
                              }
                            }
                          }
                        }
                        JOINT Bip01_Head_JawNub
                        {
                          OFFSET 15.5776 -0.000389099 0
                          CHANNELS 6 Xposition Yposition Zposition Zrotation Xrotation Yrotation
                          End Site
                          {
                            OFFSET 0 0 0
                          }
                        }
                      }
                      JOINT Bip01_Ponytail2
                      {
                        OFFSET 9.40334 1.03973 -6.51764
                        CHANNELS 6 Xposition Yposition Zposition Zrotation Xrotation Yrotation
                        JOINT Bip01_Ponytail21
                        {
                          OFFSET 2.77018 -0.00640106 1.33514e-005
                          CHANNELS 6 Xposition Yposition Zposition Zrotation Xrotation Yrotation
                          End Site
                          {
                            OFFSET 0 0 0
                          }
                        }
                      }
                      JOINT Bip01_Ponytail1
                      {
                        OFFSET 9.40368 1.03969 6.51768
                        CHANNELS 6 Xposition Yposition Zposition Zrotation Xrotation Yrotation
                        JOINT Bip01_Ponytail11
                        {
                          OFFSET 2.77018 -0.00640487 0
                          CHANNELS 6 Xposition Yposition Zposition Zrotation Xrotation Yrotation
                          End Site
                          {
                            OFFSET 0 0 0
                          }
                        }
                      }
                    }
                  }
                }
              }
            }
          }
        }
      }
    }
  }
}
MOTION
Frames:	4
Frame Time:	0.0333333
0 0 -13.9282 -0 -90 -0 2.43706 -28.7008 44.8778 83.4674 -1.26286 100.89 0 0 0 -90 -3.39578e-005 -88.0677 -6.47328 -3.86243 -0.218348 152.161 -1.41223 -29.6128 8.89589 -0.00793 8.5e-005 -7.58973 -2.83441 -8.3565 10.2239 -0.007617 0.000187 7.84415 -2.78825 -0.656954 9.85421 -0.00592 9.8e-005 18.6759 -2.78064 5.63786 8.04664 -0.005527 0.000123 28.2129 -2.76825 8.12801 1.1e-005 -1.1e-005 -8.75617 -88.7332 -9.78697 161.283 19.7638 0 -3.55271e-015 -46.0172 0.00083479 0.00116896 18.6534 1e-006 3.55271e-015 -16.0326 -7.16749 -4.13557 5.09143 13.9567 1.42109e-014 129.209 10.2351 7.77762 4.288 -1e-006 1e-006 42 1.07438e-005 -1.33998e-006 3.85803 -1.3e-005 1.00001e-006 -45 -3.21637e-005 -1.77458e-005 -1.5e-005 7e-006 8.75617 -119.208 1.32239 -154.699 19.7638 3e-006 3.55271e-015 -82.2511 1.0434e-005 0.00278884 18.6534 1e-006 3.55271e-015 -5.53937 6.66859 4.1526 5.09143 13.9567 -1.8707e-006 94.446 -14.435 -5.06243 4.288 2.13163e-014 1e-006 70.5 -4.32122e-005 3.11568e-006 3.858 1e-006 -9.99999e-007 -2.5 -3.85346e-005 1.08202e-006 9.14194 -0.006271 0.308424 -9.9478 0.337316 1.41951 8.04407 -0.006286 9.8e-005 -0.288759 -1.06346 -6.09855 8.04445 -0.006282 0.000106999 -0.927787 -0.387046 -4.0051 8.04226 -0.008232 9.80286e-007 0.153165 -0.0385461 -9.3375 10.6695 1.06798 1.70234e-005 -4.66087 -0.214709 15.4557 -1.16038 -4.32211 -9.80584 -131.672 -66.6153 162.472 19.0492 0 0 72.4898 -20.3211 -95.6263 10.3706 -1.3145e-013 -1e-006 -103.711 3.8674e-006 -0.000276934 22.8631 1e-006 -9.99999e-007 -21.0091 23.6327 3.07353 6.48256 0.103651 0.504494 -61.725 -10.1061 -14.7196 3.66843 6.21726e-015 -7.10542e-015 40.107 -2.82331e-005 2.70598e-005 -6.33305 -4.39479 7.5336 136.87 68.1481 -66.9437 19.0492 -2.46914e-013 3e-006 85.5893 13.9174 92.6507 10.3706 3.55271e-015 2.66454e-015 -107.35 7.58587e-005 -0.000964786 22.8631 -1.77636e-014 -6.21725e-015 -14.7003 -13.0334 -7.54883 6.48256 0.103651 -0.504496 -54.014 -7.7464 6.74652 3.66843 -8.34444e-013 -1e-006 40.107 -3.50058e-005 2.80074e-005 7.52716 -0.006629 3.80005e-005 3.02984 0.828447 -15.8392 8.47203 -0.005947 9.0004e-006 2.48789 -0.177544 -4.09549 8.41605 0 3.55271e-015 -78.8502 -9.82658 3.54798 -3e-006 7.10543e-015 -3e-006 -23.1098 1.37701e-015 90 -1.21764e-008 -0.500004 -1.90875e-006 -109.257 90 -160.743 0 0 0 -99.049 1.52588e-005 -180 4.28599 14.311 3.88993 -22.989 1.37021e-015 90 0 0 0 -87.1908 -7.01671e-015 -180 0 0 0 -162.289 -2.27272e-006 -3.37393e-006 0 0 0 170.24 -5.05907e-005 1.07102e-005 0 0 0 1.83152 -1.40883e-006 -3.44738e-007 0 0 0 -17.65 7.34567e-006 3.69593e-006 0 0 0 -26.1943 1.62348e-006 1.88493e-006 15.5776 -0.000394 -7.00004e-006 4.77083e-015 1.98785e-016 -7.95139e-016 9.40585 1.04108 -6.51594 70.3397 -28.946 146.584 2.76733 -0.00308 -0.004985 -39.6035 50.8656 39.8733 9.40619 1.04104 6.51597 70.3399 28.946 -146.584 2.76732 -0.003105 0.00497 -39.6037 -50.8656 -39.8733 
0 0 -13.9282 -0 -90 -0 3.2827 -28.7008 44.8776 83.1316 -1.32737 100.883 0 0 0 -90.0001 -3.37951e-005 -87.9853 -6.47281 -3.86243 -0.227787 151.421 -1.06178 -21.7354 8.89589 -0.00793 8.5e-005 -7.57045 -2.12636 -4.69141 10.2239 -0.007617 0.000187 7.91558 -2.0921 -10.8892 9.85421 -0.00592 9.8e-005 18.7241 -2.0931 -8.19216 8.04664 -0.005527 0.000123 28.2329 -2.08594 -6.4723 1.1e-005 -1.1e-005 -8.75617 -88.9748 -10.0333 162.282 19.7638 3.55271e-015 -3.55271e-015 -47.0562 0.000813456 0.0011839 18.6534 1e-006 7.10543e-015 -15.078 -6.59279 -5.25162 5.09143 13.9567 0 129.209 10.2351 7.77762 4.288 -1e-006 1e-006 42 1.05094e-005 -1.34378e-006 3.85803 -1.3e-005 1.00001e-006 -45 -3.20007e-005 -1.75771e-005 -1.5e-005 7e-006 8.75617 -118.318 0.741664 -153.528 19.7638 3e-006 2.13163e-014 -80.9484 7.39471e-005 0.00278788 18.6534 1e-006 -7.10543e-015 -6.49777 7.58354 2.8842 5.09143 13.9567 -1.85779e-006 94.446 -14.435 -5.06243 4.288 1.77636e-014 1e-006 70.5 -4.42218e-005 3.09247e-006 3.858 1e-006 -9.99999e-007 -2.5 -3.89531e-005 1.12642e-006 9.14141 -0.006271 0.321685 -9.94755 0.352002 1.81765 8.04407 -0.006286 9.8e-005 -0.514625 -1.11908 -6.28863 8.04445 -0.006282 0.000107 -0.672735 -0.472794 -4.57451 8.04226 -0.008232 9.51347e-007 -0.158452 -0.0121619 -13.2773 10.6695 1.06798 1.7011e-005 -4.65198 -0.245222 17.6753 -0.864159 -4.31787 -9.83712 -129.126 -65.3221 165.257 19.0492 0 7.10543e-015 72.1578 -21.2739 -100.071 10.3706 -1.66978e-013 -1e-006 -102.645 -1.70141e-006 -0.000278549 22.8631 1e-006 -9.99999e-007 -22.8188 23.0932 3.07563 6.48256 0.103651 0.504494 -61.7284 -10.0093 -14.7241 3.66843 5.77317e-015 1.06581e-014 40.107 -3.38002e-005 3.07673e-005 -6.55643 -4.39813 7.33656 133.948 66.924 -63.7804 19.0492 -2.75335e-013 3e-006 85.2019 10.0981 87.802 10.3706 -7.10543e-015 1.77636e-015 -106.829 7.07227e-005 -0.000973658 22.8631 1.06581e-014 -7.10543e-015 -11.85 -13.8393 -7.68025 6.48256 0.103651 -0.504496 -54.014 -7.7464 6.74652 3.66843 -8.81517e-013 -1e-006 40.107 -3.78037e-005 3.04141e-005 7.52716 -0.006629 3.80012e-005 3.05738 0.913556 -17.7166 8.47203 -0.005947 9.00029e-006 2.48113 -0.219928 -5.07854 8.41605 -1.42109e-014 1.77636e-014 -77.3952 -12.1804 32.7757 -3e-006 1.63425e-013 -3e-006 -23.1098 1.37701e-015 90 2.34425e-008 -0.500004 -1.8988e-006 95.7089 90 -5.70887 0 0 0 -99.049 -1.52588e-005 -180 4.16867 14.3468 3.88993 -22.989 1.37021e-015 90 0 0 0 -87.1065 -1.52588e-005 -180 0 0 0 -162.289 9.86458e-006 -6.13907e-006 0 0 0 170.24 -3.10058e-005 1.12999e-005 0 0 0 1.83152 1.36218e-006 1.71632e-007 0 0 0 -17.65 -4.40661e-006 -2.04041e-006 0 0 0 -26.1943 -6.7453e-007 -8.85552e-007 15.5776 -0.000394 -6.99998e-006 -2.45179e-031 -3.926e-015 -3.57812e-015 9.40585 1.04108 -6.51594 70.3397 -28.946 146.584 2.76733 -0.00308 -0.004985 -39.6036 50.8656 39.8733 9.40619 1.04104 6.51597 70.3399 28.946 -146.584 2.76732 -0.003105 0.00497 -39.6037 -50.8656 -39.8733 
0 0 -13.9282 -0 -90 -0 3.1612 -28.7008 44.8777 84.583 -1.04786 100.913 0 0 0 -90.0002 -3.93578e-005 -88.5788 -6.47446 -3.86243 -0.160996 151.127 1.77721 -9.83391 8.89589 -0.00793 8.5e-005 -7.54618 -1.43686 0.207272 10.2239 -0.007617 0.000187 8.10177 -1.42028 -14.1574 9.85421 -0.00592 9.8e-005 18.8628 -1.41028 -16.8371 8.04664 -0.005527 0.000123 28.2947 -1.40141 -20.1988 1.1e-005 -1.1e-005 -8.75617 -89.1556 -10.7443 162.806 19.7638 1.06581e-014 0 -48.0241 0.000793342 0.00119748 18.6534 1e-006 -3.55271e-015 -15.9685 -5.06466 -4.59858 5.09143 13.9567 2.13163e-014 129.209 10.2351 7.77762 4.288 -1e-006 1e-006 42 1.51097e-005 -1.26614e-006 3.85803 -1.3e-005 1.00001e-006 -45 -3.51987e-005 -2.0891e-005 -1.5e-005 7e-006 8.75617 -119.594 -0.276233 -154.033 19.7638 3e-006 1.06581e-014 -81.4773 4.80265e-005 0.00278844 18.6534 1e-006 0 -6.95767 8.07183 4.16143 5.09143 13.9567 -1.97082e-006 94.446 -14.435 -5.06243 4.288 3.55271e-014 1e-006 70.5 -4.59899e-005 3.33264e-006 3.858 1e-006 -9.99999e-007 -2.5 -3.91377e-005 1.19983e-006 9.14386 -0.006271 0.226915 -9.95198 0.249559 3.17624 8.04407 -0.006286 9.8e-005 -0.73938 -1.02738 -4.04596 8.04445 -0.006282 0.000107 -0.32111 -0.696012 -5.45103 8.04226 -0.008232 9.85306e-007 -0.742547 0.0337221 -12.1465 10.6695 1.06798 1.69945e-005 -4.64613 -0.263431 18.9954 -0.633094 -4.3142 -9.85729 -127.321 -64.2773 167.251 19.0492 0 7.10543e-015 70.8746 -20.5399 -96.5317 10.3706 -1.42109e-013 -1e-006 -101.992 -4.80052e-006 -0.000276524 22.8631 1e-006 -9.99999e-007 -23.0784 24.1615 5.04064 6.48256 0.103651 0.504494 -61.7085 -10.4301 -14.7054 3.66843 -3.86358e-014 0 40.107 -2.79736e-005 2.71986e-005 -6.72737 -4.40091 7.17971 131.884 65.9228 -61.527 19.0492 -2.45137e-013 3e-006 86.6066 11.825 90.3993 10.3706 -3.55271e-015 -7.10543e-015 -105.79 5.15482e-005 -0.000971822 22.8631 0 -1.77636e-015 -13.1733 -13.2663 -6.23545 6.48256 0.103651 -0.504496 -54.014 -7.7464 6.74652 3.66843 -9.10827e-013 -1e-006 40.107 -3.87183e-005 3.07393e-005 7.52716 -0.006629 3.80003e-005 3.0828 0.985845 -19.2421 8.47203 -0.005947 9.00044e-006 2.47589 -0.245942 -5.68555 8.41605 7.10543e-015 1.06581e-014 -76.0569 -7.28135 44.7686 -3e-006 1.84741e-013 -3e-006 -23.1098 1.37701e-015 90 1.96e-008 -0.500004 -1.89582e-006 94.433 90 -4.43302 0 0 0 -99.049 7.01671e-015 -180 4.05134 14.3827 3.88993 -22.989 1.37021e-015 90 0 0 0 -87.0222 -1.52588e-005 -180 0 0 0 -162.289 3.17418e-006 -5.73726e-006 0 0 0 170.24 -3.91093e-005 1.0379e-005 0 0 0 1.83152 5.24557e-007 8.37448e-008 0 0 0 -17.65 -1.82743e-006 -9.53106e-007 0 0 0 -26.1943 -2.2064e-007 -5.15606e-007 15.5776 -0.000394 -6.99999e-006 -1.37935e-032 -1.98785e-016 -3.97569e-015 9.40585 1.04108 -6.51594 70.3396 -28.946 146.584 2.76733 -0.00308 -0.004985 -39.6036 50.8656 39.8733 9.4062 1.04104 6.51597 70.3399 28.946 -146.584 2.76732 -0.003105 0.00497 -39.6037 -50.8656 -39.8733 
0 0 -13.9282 -0 -90 -0 2.19963 -28.7008 44.878 87.3395 -0.515063 100.951 0 0 0 -89.9997 7.10752e-006 -89.6534 -6.47575 -3.86243 -0.0399511 150.306 6.38556 4.68764 8.89589 -0.00793 8.5e-005 -7.56071 -0.758464 5.86362 10.2239 -0.007617 0.000187 8.27707 -0.770773 -12.4708 9.85421 -0.00592 9.8e-005 19.0173 -0.7587 -21.7148 8.04664 -0.005527 0.000123 28.4162 -0.733371 -32.9218 1.1e-005 -1.1e-005 -8.75617 -89.4247 -11.6216 162.671 19.7638 0 -3.55271e-015 -48.8793 0.00077538 0.00120918 18.6534 1e-006 0 -18.8713 -3.31201 -2.37135 5.09143 13.9567 2.84217e-014 129.209 10.2351 7.77762 4.288 -1e-006 1e-006 42 1.98942e-005 -1.12292e-006 3.85803 -1.3e-005 1.00001e-006 -45 -3.84776e-005 -2.43866e-005 -1.5e-005 7e-006 8.75617 -122.267 -1.22009 -156.022 19.7638 3e-006 3.55271e-015 -83.2363 -3.78837e-005 0.00278861 18.6534 1e-006 3.55271e-015 -6.82603 8.14148 7.41701 5.09143 13.9567 -2.18194e-006 94.446 -14.435 -5.06243 4.288 3.19744e-014 1e-006 70.5 -4.7365e-005 3.76736e-006 3.858 1e-006 -9.99999e-007 -2.5 -3.87895e-005 1.2531e-006 9.14587 -0.006271 0.0553127 -9.95598 0.0639192 5.0577 8.04407 -0.006286 9.8e-005 -0.945842 -0.817136 -0.106046 8.04445 -0.006282 0.000107 0.0712679 -0.991362 -6.35802 8.04226 -0.008232 9.98344e-007 -1.49704 0.0348234 -7.34676 10.6695 1.06798 1.69089e-005 -4.63923 -0.285235 20.3382 -0.524407 -4.31221 -9.86447 -126.528 -63.7806 168.136 19.0492 -3.55271e-015 1.42109e-014 69.5173 -19.8213 -86.7939 10.3706 -1.3145e-013 -1e-006 -101.781 -4.26512e-006 -0.000275627 22.8631 1e-006 -9.99999e-007 -21.8427 27.2792 7.68012 6.48256 0.103651 0.504494 -61.664 -11.2132 -14.6691 3.66843 -1.55431e-014 -7.10542e-015 40.107 -1.27532e-005 1.86172e-005 -6.80599 -4.40243 7.10421 130.984 65.4421 -60.5412 19.0492 -1.79412e-013 3e-006 88.8282 17.0954 97.676 10.3706 -7.10543e-015 -8.88179e-016 -103.871 1.57037e-005 -0.000965214 22.8631 1.42109e-014 -5.32907e-015 -17.0805 -11.8027 -3.65508 6.48256 0.103651 -0.504496 -54.014 -7.74639 6.74652 3.66843 -9.74776e-013 -1e-006 40.107 -4.30213e-005 3.27391e-005 7.52716 -0.006629 3.79998e-005 3.0971 1.02419 -20.0358 8.47203 -0.005947 9.00142e-006 2.47381 -0.257732 -5.96023 8.41605 -2.13163e-014 0 -75.8584 0.430118 44.8582 -3e-006 1.98952e-013 -3e-006 -23.1098 1.37701e-015 90 9.59274e-009 -0.500004 -1.9014e-006 103.434 90 -13.4338 0 0 0 -99.049 7.01671e-015 -180 3.93403 14.4185 3.88993 -22.989 1.37021e-015 90 0 0 0 -86.938 -1.52588e-005 -180 0 0 0 -162.289 2.26064e-005 -4.94435e-006 0 0 0 170.24 -2.188e-005 1.40941e-005 0 0 0 1.83152 -3.01194e-007 -5.58795e-008 0 0 0 -17.65 1.21826e-006 6.21166e-007 0 0 0 -26.1943 3.31227e-007 3.23996e-007 15.5776 -0.000394 -7.00001e-006 -8.20711e-032 6.75868e-015 6.95746e-016 9.40585 1.04108 -6.51594 70.3396 -28.946 146.584 2.76733 -0.00308 -0.004985 -39.6036 50.8656 39.8733 9.4062 1.04104 6.51597 70.3399 28.946 -146.584 2.76732 -0.003105 0.00497 -39.6037 -50.8656 -39.8733 
